<?xml version="1.0" encoding="UTF-8" standalone="no"?>
<!DOCTYPE svg PUBLIC "-//W3C//DTD SVG 1.1//EN"
 "http://www.w3.org/Graphics/SVG/1.1/DTD/svg11.dtd">
<!-- Generated by graphviz version 2.42.2 ()
 -->
<!-- Title: graph_ariles Pages: 1 -->
<svg width="937pt" height="476pt"
 viewBox="0.00 0.00 937.13 476.00" xmlns="http://www.w3.org/2000/svg" xmlns:xlink="http://www.w3.org/1999/xlink">
<g id="graph0" class="graph" transform="scale(1 1) rotate(0) translate(4 472)">
<title>graph_ariles</title>
<polygon fill="white" stroke="transparent" points="-4,4 -4,-472 933.13,-472 933.13,4 -4,4"/>
<!-- ariles -->
<g id="node1" class="node">
<title>ariles</title>
<ellipse fill="none" stroke="black" cx="36.4" cy="-234" rx="36.29" ry="18"/>
<text text-anchor="middle" x="36.4" y="-230.3" font-family="Times-Roman" font-size="14.00">ariles</text>
</g>
<!-- ariles_visitors -->
<g id="node2" class="node">
<title>ariles_visitors</title>
<ellipse fill="none" stroke="black" cx="152.99" cy="-234" rx="44.39" ry="18"/>
<text text-anchor="middle" x="152.99" y="-230.3" font-family="Times-Roman" font-size="14.00">visitors</text>
</g>
<!-- ariles&#45;&gt;ariles_visitors -->
<g id="edge1" class="edge">
<title>ariles&#45;&gt;ariles_visitors</title>
<path fill="none" stroke="black" d="M73.03,-234C81.15,-234 89.95,-234 98.63,-234"/>
<polygon fill="black" stroke="black" points="98.72,-237.5 108.72,-234 98.72,-230.5 98.72,-237.5"/>
</g>
<!-- ariles_visitors_graphviz -->
<g id="node3" class="node">
<title>ariles_visitors_graphviz</title>
<g id="a_node3"><a xlink:href="https://asherikov.github.io/ariles/2/group__graphviz.html" xlink:title="graphviz">
<ellipse fill="none" stroke="black" cx="296.23" cy="-450" rx="50.89" ry="18"/>
<text text-anchor="middle" x="296.23" y="-446.3" font-family="Times-Roman" font-size="14.00">graphviz</text>
</a>
</g>
</g>
<!-- ariles_visitors&#45;&gt;ariles_visitors_graphviz -->
<g id="edge2" class="edge">
<title>ariles_visitors&#45;&gt;ariles_visitors_graphviz</title>
<path fill="none" stroke="black" d="M156.93,-252.1C163.81,-288.94 184.22,-373.36 233.19,-423 237.36,-427.23 242.31,-430.85 247.56,-433.92"/>
<polygon fill="black" stroke="black" points="246.12,-437.12 256.61,-438.6 249.34,-430.9 246.12,-437.12"/>
</g>
<!-- ariles_visitors_jsonnet -->
<g id="node4" class="node">
<title>ariles_visitors_jsonnet</title>
<g id="a_node4"><a xlink:href="https://asherikov.github.io/ariles/2/group__jsonnet.html" xlink:title="jsonnet">
<ellipse fill="none" stroke="black" cx="296.23" cy="-396" rx="44.69" ry="18"/>
<text text-anchor="middle" x="296.23" y="-392.3" font-family="Times-Roman" font-size="14.00">jsonnet</text>
</a>
</g>
</g>
<!-- ariles_visitors&#45;&gt;ariles_visitors_jsonnet -->
<g id="edge3" class="edge">
<title>ariles_visitors&#45;&gt;ariles_visitors_jsonnet</title>
<path fill="none" stroke="black" d="M160.38,-252.16C171.23,-280.6 195.77,-335.83 233.19,-369 238.38,-373.61 244.49,-377.53 250.81,-380.83"/>
<polygon fill="black" stroke="black" points="249.6,-384.13 260.13,-385.24 252.59,-377.8 249.6,-384.13"/>
</g>
<!-- ariles_visitors_msgpack -->
<g id="node7" class="node">
<title>ariles_visitors_msgpack</title>
<g id="a_node7"><a xlink:href="https://asherikov.github.io/ariles/2/group__msgpack.html" xlink:title="msgpack">
<ellipse fill="none" stroke="black" cx="296.23" cy="-342" rx="52.79" ry="18"/>
<text text-anchor="middle" x="296.23" y="-338.3" font-family="Times-Roman" font-size="14.00">msgpack</text>
</a>
</g>
</g>
<!-- ariles_visitors&#45;&gt;ariles_visitors_msgpack -->
<g id="edge6" class="edge">
<title>ariles_visitors&#45;&gt;ariles_visitors_msgpack</title>
<path fill="none" stroke="black" d="M167.3,-251.1C181.9,-268.94 206.79,-296.8 233.19,-315 238.39,-318.59 244.15,-321.86 250,-324.79"/>
<polygon fill="black" stroke="black" points="248.66,-328.03 259.2,-329.11 251.63,-321.69 248.66,-328.03"/>
</g>
<!-- ariles_visitors_namevalue -->
<g id="node10" class="node">
<title>ariles_visitors_namevalue</title>
<g id="a_node10"><a xlink:href="https://asherikov.github.io/ariles/2/group__namevalue.html" xlink:title="namevalue">
<ellipse fill="none" stroke="black" cx="296.23" cy="-288" rx="63.09" ry="18"/>
<text text-anchor="middle" x="296.23" y="-284.3" font-family="Times-Roman" font-size="14.00">namevalue</text>
</a>
</g>
</g>
<!-- ariles_visitors&#45;&gt;ariles_visitors_namevalue -->
<g id="edge9" class="edge">
<title>ariles_visitors&#45;&gt;ariles_visitors_namevalue</title>
<path fill="none" stroke="black" d="M185.69,-246.12C204.08,-253.15 227.6,-262.14 248.13,-269.99"/>
<polygon fill="black" stroke="black" points="247.03,-273.32 257.63,-273.62 249.53,-266.78 247.03,-273.32"/>
</g>
<!-- ariles_visitors_octave -->
<g id="node11" class="node">
<title>ariles_visitors_octave</title>
<g id="a_node11"><a xlink:href="https://asherikov.github.io/ariles/2/group__octave.html" xlink:title="octave">
<ellipse fill="none" stroke="black" cx="296.23" cy="-234" rx="42.49" ry="18"/>
<text text-anchor="middle" x="296.23" y="-230.3" font-family="Times-Roman" font-size="14.00">octave</text>
</a>
</g>
</g>
<!-- ariles_visitors&#45;&gt;ariles_visitors_octave -->
<g id="edge10" class="edge">
<title>ariles_visitors&#45;&gt;ariles_visitors_octave</title>
<path fill="none" stroke="black" d="M197.52,-234C212.01,-234 228.29,-234 243.35,-234"/>
<polygon fill="black" stroke="black" points="243.54,-237.5 253.54,-234 243.54,-230.5 243.54,-237.5"/>
</g>
<!-- ariles_visitors_pugixml -->
<g id="node12" class="node">
<title>ariles_visitors_pugixml</title>
<g id="a_node12"><a xlink:href="https://asherikov.github.io/ariles/2/group__pugixml.html" xlink:title="pugixml">
<ellipse fill="none" stroke="black" cx="296.23" cy="-180" rx="48.19" ry="18"/>
<text text-anchor="middle" x="296.23" y="-176.3" font-family="Times-Roman" font-size="14.00">pugixml</text>
</a>
</g>
</g>
<!-- ariles_visitors&#45;&gt;ariles_visitors_pugixml -->
<g id="edge11" class="edge">
<title>ariles_visitors&#45;&gt;ariles_visitors_pugixml</title>
<path fill="none" stroke="black" d="M185.69,-221.88C205.29,-214.38 230.72,-204.66 252.14,-196.47"/>
<polygon fill="black" stroke="black" points="253.58,-199.67 261.67,-192.83 251.08,-193.13 253.58,-199.67"/>
</g>
<!-- ariles_visitors_rapidjson -->
<g id="node15" class="node">
<title>ariles_visitors_rapidjson</title>
<g id="a_node15"><a xlink:href="https://asherikov.github.io/ariles/2/group__rapidjson.html" xlink:title="rapidjson">
<ellipse fill="none" stroke="black" cx="296.23" cy="-126" rx="53.89" ry="18"/>
<text text-anchor="middle" x="296.23" y="-122.3" font-family="Times-Roman" font-size="14.00">rapidjson</text>
</a>
</g>
</g>
<!-- ariles_visitors&#45;&gt;ariles_visitors_rapidjson -->
<g id="edge14" class="edge">
<title>ariles_visitors&#45;&gt;ariles_visitors_rapidjson</title>
<path fill="none" stroke="black" d="M167.3,-216.9C181.9,-199.06 206.79,-171.2 233.19,-153 238.33,-149.46 244.01,-146.22 249.78,-143.32"/>
<polygon fill="black" stroke="black" points="251.32,-146.46 258.87,-139.03 248.33,-140.13 251.32,-146.46"/>
</g>
<!-- ariles_visitors_rosparam -->
<g id="node18" class="node">
<title>ariles_visitors_rosparam</title>
<g id="a_node18"><a xlink:href="https://asherikov.github.io/ariles/2/group__rosparam.html" xlink:title="rosparam">
<ellipse fill="none" stroke="black" cx="296.23" cy="-72" rx="55.79" ry="18"/>
<text text-anchor="middle" x="296.23" y="-68.3" font-family="Times-Roman" font-size="14.00">rosparam</text>
</a>
</g>
</g>
<!-- ariles_visitors&#45;&gt;ariles_visitors_rosparam -->
<g id="edge17" class="edge">
<title>ariles_visitors&#45;&gt;ariles_visitors_rosparam</title>
<path fill="none" stroke="black" d="M160.38,-215.84C171.23,-187.4 195.77,-132.17 233.19,-99 237.31,-95.35 242,-92.13 246.91,-89.3"/>
<polygon fill="black" stroke="black" points="248.65,-92.34 255.93,-84.64 245.44,-86.13 248.65,-92.34"/>
</g>
<!-- ariles_visitors_yaml_cpp -->
<g id="node21" class="node">
<title>ariles_visitors_yaml_cpp</title>
<g id="a_node21"><a xlink:href="https://asherikov.github.io/ariles/2/group__yaml__cpp.html" xlink:title="yaml_cpp">
<ellipse fill="none" stroke="black" cx="296.23" cy="-18" rx="55.49" ry="18"/>
<text text-anchor="middle" x="296.23" y="-14.3" font-family="Times-Roman" font-size="14.00">yaml_cpp</text>
</a>
</g>
</g>
<!-- ariles_visitors&#45;&gt;ariles_visitors_yaml_cpp -->
<g id="edge20" class="edge">
<title>ariles_visitors&#45;&gt;ariles_visitors_yaml_cpp</title>
<path fill="none" stroke="black" d="M156.93,-215.9C163.81,-179.06 184.22,-94.64 233.19,-45 236.91,-41.23 241.24,-37.95 245.86,-35.1"/>
<polygon fill="black" stroke="black" points="247.87,-37.99 255,-30.15 244.54,-31.84 247.87,-37.99"/>
</g>
<!-- ariles_visitors_jsonnet_dependencies -->
<g id="node5" class="node">
<title>ariles_visitors_jsonnet_dependencies</title>
<ellipse fill="none" stroke="black" cx="470.67" cy="-396" rx="75.29" ry="18"/>
<text text-anchor="middle" x="470.67" y="-392.3" font-family="Times-Roman" font-size="14.00">dependencies</text>
</g>
<!-- ariles_visitors_jsonnet&#45;&gt;ariles_visitors_jsonnet_dependencies -->
<g id="edge4" class="edge">
<title>ariles_visitors_jsonnet&#45;&gt;ariles_visitors_jsonnet_dependencies</title>
<path fill="none" stroke="black" d="M341.19,-396C354.49,-396 369.56,-396 384.59,-396"/>
<polygon fill="black" stroke="black" points="384.97,-399.5 394.97,-396 384.97,-392.5 384.97,-399.5"/>
</g>
<!-- jsonnet -->
<g id="node6" class="node">
<title>jsonnet</title>
<g id="a_node6"><a xlink:href="https://jsonnet.org/" xlink:title="https://jsonnet.org/">
<ellipse fill="none" stroke="black" cx="755.6" cy="-396" rx="98.58" ry="18"/>
<text text-anchor="middle" x="755.6" y="-392.3" font-family="Times-Roman" font-size="14.00">https://jsonnet.org/</text>
</a>
</g>
</g>
<!-- ariles_visitors_jsonnet_dependencies&#45;&gt;jsonnet -->
<g id="edge5" class="edge">
<title>ariles_visitors_jsonnet_dependencies&#45;&gt;jsonnet</title>
<path fill="none" stroke="black" d="M546.37,-396C577.01,-396 613.07,-396 646.49,-396"/>
<polygon fill="black" stroke="black" points="646.77,-399.5 656.77,-396 646.77,-392.5 646.77,-399.5"/>
</g>
<!-- ariles_visitors_msgpack_dependencies -->
<g id="node8" class="node">
<title>ariles_visitors_msgpack_dependencies</title>
<ellipse fill="none" stroke="black" cx="470.67" cy="-342" rx="75.29" ry="18"/>
<text text-anchor="middle" x="470.67" y="-338.3" font-family="Times-Roman" font-size="14.00">dependencies</text>
</g>
<!-- ariles_visitors_msgpack&#45;&gt;ariles_visitors_msgpack_dependencies -->
<g id="edge7" class="edge">
<title>ariles_visitors_msgpack&#45;&gt;ariles_visitors_msgpack_dependencies</title>
<path fill="none" stroke="black" d="M348.97,-342C360.28,-342 372.55,-342 384.78,-342"/>
<polygon fill="black" stroke="black" points="385.02,-345.5 395.02,-342 385.02,-338.5 385.02,-345.5"/>
</g>
<!-- msgpack -->
<g id="node9" class="node">
<title>msgpack</title>
<g id="a_node9"><a xlink:href="https://msgpack.org/" xlink:title="https://msgpack.org/">
<ellipse fill="none" stroke="black" cx="755.6" cy="-342" rx="106.68" ry="18"/>
<text text-anchor="middle" x="755.6" y="-338.3" font-family="Times-Roman" font-size="14.00">https://msgpack.org/</text>
</a>
</g>
</g>
<!-- ariles_visitors_msgpack_dependencies&#45;&gt;msgpack -->
<g id="edge8" class="edge">
<title>ariles_visitors_msgpack_dependencies&#45;&gt;msgpack</title>
<path fill="none" stroke="black" d="M546.37,-342C574.66,-342 607.58,-342 638.77,-342"/>
<polygon fill="black" stroke="black" points="638.83,-345.5 648.83,-342 638.83,-338.5 638.83,-345.5"/>
</g>
<!-- ariles_visitors_pugixml_dependencies -->
<g id="node13" class="node">
<title>ariles_visitors_pugixml_dependencies</title>
<ellipse fill="none" stroke="black" cx="470.67" cy="-180" rx="75.29" ry="18"/>
<text text-anchor="middle" x="470.67" y="-176.3" font-family="Times-Roman" font-size="14.00">dependencies</text>
</g>
<!-- ariles_visitors_pugixml&#45;&gt;ariles_visitors_pugixml_dependencies -->
<g id="edge12" class="edge">
<title>ariles_visitors_pugixml&#45;&gt;ariles_visitors_pugixml_dependencies</title>
<path fill="none" stroke="black" d="M344.35,-180C356.95,-180 370.96,-180 384.92,-180"/>
<polygon fill="black" stroke="black" points="385.05,-183.5 395.05,-180 385.05,-176.5 385.05,-183.5"/>
</g>
<!-- pugixml -->
<g id="node14" class="node">
<title>pugixml</title>
<g id="a_node14"><a xlink:href="https://pugixml.org/" xlink:title="https://pugixml.org/">
<ellipse fill="none" stroke="black" cx="755.6" cy="-180" rx="101.28" ry="18"/>
<text text-anchor="middle" x="755.6" y="-176.3" font-family="Times-Roman" font-size="14.00">https://pugixml.org/</text>
</a>
</g>
</g>
<!-- ariles_visitors_pugixml_dependencies&#45;&gt;pugixml -->
<g id="edge13" class="edge">
<title>ariles_visitors_pugixml_dependencies&#45;&gt;pugixml</title>
<path fill="none" stroke="black" d="M546.37,-180C576.27,-180 611.33,-180 644.06,-180"/>
<polygon fill="black" stroke="black" points="644.14,-183.5 654.14,-180 644.14,-176.5 644.14,-183.5"/>
</g>
<!-- ariles_visitors_rapidjson_dependencies -->
<g id="node16" class="node">
<title>ariles_visitors_rapidjson_dependencies</title>
<ellipse fill="none" stroke="black" cx="470.67" cy="-126" rx="75.29" ry="18"/>
<text text-anchor="middle" x="470.67" y="-122.3" font-family="Times-Roman" font-size="14.00">dependencies</text>
</g>
<!-- ariles_visitors_rapidjson&#45;&gt;ariles_visitors_rapidjson_dependencies -->
<g id="edge15" class="edge">
<title>ariles_visitors_rapidjson&#45;&gt;ariles_visitors_rapidjson_dependencies</title>
<path fill="none" stroke="black" d="M350.37,-126C361.32,-126 373.1,-126 384.85,-126"/>
<polygon fill="black" stroke="black" points="385.14,-129.5 395.14,-126 385.14,-122.5 385.14,-129.5"/>
</g>
<!-- rapidjson -->
<g id="node17" class="node">
<title>rapidjson</title>
<g id="a_node17"><a xlink:href="https://rapidjson.org/" xlink:title="https://rapidjson.org/">
<ellipse fill="none" stroke="black" cx="755.6" cy="-126" rx="107.48" ry="18"/>
<text text-anchor="middle" x="755.6" y="-122.3" font-family="Times-Roman" font-size="14.00">https://rapidjson.org/</text>
</a>
</g>
</g>
<!-- ariles_visitors_rapidjson_dependencies&#45;&gt;rapidjson -->
<g id="edge16" class="edge">
<title>ariles_visitors_rapidjson_dependencies&#45;&gt;rapidjson</title>
<path fill="none" stroke="black" d="M546.37,-126C574.52,-126 607.23,-126 638.28,-126"/>
<polygon fill="black" stroke="black" points="638.29,-129.5 648.29,-126 638.29,-122.5 638.29,-129.5"/>
</g>
<!-- ariles_visitors_rosparam_dependencies -->
<g id="node19" class="node">
<title>ariles_visitors_rosparam_dependencies</title>
<ellipse fill="none" stroke="black" cx="470.67" cy="-72" rx="75.29" ry="18"/>
<text text-anchor="middle" x="470.67" y="-68.3" font-family="Times-Roman" font-size="14.00">dependencies</text>
</g>
<!-- ariles_visitors_rosparam&#45;&gt;ariles_visitors_rosparam_dependencies -->
<g id="edge18" class="edge">
<title>ariles_visitors_rosparam&#45;&gt;ariles_visitors_rosparam_dependencies</title>
<path fill="none" stroke="black" d="M352.26,-72C362.68,-72 373.79,-72 384.88,-72"/>
<polygon fill="black" stroke="black" points="385.03,-75.5 395.03,-72 385.03,-68.5 385.03,-75.5"/>
</g>
<!-- ros -->
<g id="node20" class="node">
<title>ros</title>
<g id="a_node20"><a xlink:href="https://www.ros.org/" xlink:title="https://www.ros.org/">
<ellipse fill="none" stroke="black" cx="755.6" cy="-72" rx="104.78" ry="18"/>
<text text-anchor="middle" x="755.6" y="-68.3" font-family="Times-Roman" font-size="14.00">https://www.ros.org/</text>
</a>
</g>
</g>
<!-- ariles_visitors_rosparam_dependencies&#45;&gt;ros -->
<g id="edge19" class="edge">
<title>ariles_visitors_rosparam_dependencies&#45;&gt;ros</title>
<path fill="none" stroke="black" d="M546.37,-72C575.18,-72 608.78,-72 640.48,-72"/>
<polygon fill="black" stroke="black" points="640.69,-75.5 650.69,-72 640.69,-68.5 640.69,-75.5"/>
</g>
<!-- ariles_visitors_yaml_cpp_dependencies -->
<g id="node22" class="node">
<title>ariles_visitors_yaml_cpp_dependencies</title>
<ellipse fill="none" stroke="black" cx="470.67" cy="-18" rx="75.29" ry="18"/>
<text text-anchor="middle" x="470.67" y="-14.3" font-family="Times-Roman" font-size="14.00">dependencies</text>
</g>
<!-- ariles_visitors_yaml_cpp&#45;&gt;ariles_visitors_yaml_cpp_dependencies -->
<g id="edge21" class="edge">
<title>ariles_visitors_yaml_cpp&#45;&gt;ariles_visitors_yaml_cpp_dependencies</title>
<path fill="none" stroke="black" d="M351.79,-18C362.29,-18 373.52,-18 384.72,-18"/>
<polygon fill="black" stroke="black" points="384.97,-21.5 394.97,-18 384.97,-14.5 384.97,-21.5"/>
</g>
<!-- yaml_cpp -->
<g id="node23" class="node">
<title>yaml_cpp</title>
<g id="a_node23"><a xlink:href="https://github.com/jbeder/yaml-cpp" xlink:title="https://github.com/jbeder/yaml&#45;cpp">
<ellipse fill="none" stroke="black" cx="755.6" cy="-18" rx="173.57" ry="18"/>
<text text-anchor="middle" x="755.6" y="-14.3" font-family="Times-Roman" font-size="14.00">https://github.com/jbeder/yaml&#45;cpp</text>
</a>
</g>
</g>
<!-- ariles_visitors_yaml_cpp_dependencies&#45;&gt;yaml_cpp -->
<g id="edge22" class="edge">
<title>ariles_visitors_yaml_cpp_dependencies&#45;&gt;yaml_cpp</title>
<path fill="none" stroke="black" d="M546.37,-18C554.43,-18 562.87,-18 571.53,-18"/>
<polygon fill="black" stroke="black" points="571.8,-21.5 581.8,-18 571.8,-14.5 571.8,-21.5"/>
</g>
</g>
</svg>
