<?xml version="1.0" encoding="UTF-8" standalone="no"?>
<!DOCTYPE svg PUBLIC "-//W3C//DTD SVG 1.1//EN"
 "http://www.w3.org/Graphics/SVG/1.1/DTD/svg11.dtd">
<!-- Generated by graphviz version 2.42.2 ()
 -->
<!-- Title: graph_ariles Pages: 1 -->
<svg width="945pt" height="530pt"
 viewBox="0.00 0.00 944.93 530.00" xmlns="http://www.w3.org/2000/svg" xmlns:xlink="http://www.w3.org/1999/xlink">
<g id="graph0" class="graph" transform="scale(1 1) rotate(0) translate(4 526)">
<title>graph_ariles</title>
<polygon fill="white" stroke="transparent" points="-4,4 -4,-526 940.93,-526 940.93,4 -4,4"/>
<!-- ariles -->
<g id="node1" class="node">
<title>ariles</title>
<ellipse fill="none" stroke="black" cx="36.4" cy="-261" rx="36.29" ry="18"/>
<text text-anchor="middle" x="36.4" y="-257.3" font-family="Times-Roman" font-size="14.00">ariles</text>
</g>
<!-- ariles_visitors -->
<g id="node2" class="node">
<title>ariles_visitors</title>
<ellipse fill="none" stroke="black" cx="152.99" cy="-261" rx="44.39" ry="18"/>
<text text-anchor="middle" x="152.99" y="-257.3" font-family="Times-Roman" font-size="14.00">visitors</text>
</g>
<!-- ariles&#45;&gt;ariles_visitors -->
<g id="edge1" class="edge">
<title>ariles&#45;&gt;ariles_visitors</title>
<path fill="none" stroke="black" d="M73.03,-261C81.15,-261 89.95,-261 98.63,-261"/>
<polygon fill="black" stroke="black" points="98.72,-264.5 108.72,-261 98.72,-257.5 98.72,-264.5"/>
</g>
<!-- ariles_visitors_array -->
<g id="node3" class="node">
<title>ariles_visitors_array</title>
<g id="a_node3"><a xlink:href="https://asherikov.github.io/ariles/2/group__array.html" xlink:title="array">
<ellipse fill="none" stroke="black" cx="300.13" cy="-504" rx="36" ry="18"/>
<text text-anchor="middle" x="300.13" y="-500.3" font-family="Times-Roman" font-size="14.00">array</text>
</a>
</g>
</g>
<!-- ariles_visitors&#45;&gt;ariles_visitors_array -->
<g id="edge2" class="edge">
<title>ariles_visitors&#45;&gt;ariles_visitors_array</title>
<path fill="none" stroke="black" d="M155.74,-279.23C160.6,-320 177.76,-419.47 233.19,-477 239.94,-484.01 248.77,-489.26 257.76,-493.17"/>
<polygon fill="black" stroke="black" points="256.52,-496.44 267.11,-496.78 259.04,-489.91 256.52,-496.44"/>
</g>
<!-- ariles_visitors_graphviz -->
<g id="node4" class="node">
<title>ariles_visitors_graphviz</title>
<g id="a_node4"><a xlink:href="https://asherikov.github.io/ariles/2/group__graphviz.html" xlink:title="graphviz">
<ellipse fill="none" stroke="black" cx="300.13" cy="-450" rx="50.89" ry="18"/>
<text text-anchor="middle" x="300.13" y="-446.3" font-family="Times-Roman" font-size="14.00">graphviz</text>
</a>
</g>
</g>
<!-- ariles_visitors&#45;&gt;ariles_visitors_graphviz -->
<g id="edge3" class="edge">
<title>ariles_visitors&#45;&gt;ariles_visitors_graphviz</title>
<path fill="none" stroke="black" d="M158.27,-279.13C166.93,-312.07 189.53,-382.14 233.19,-423 238.16,-427.66 244.05,-431.56 250.23,-434.82"/>
<polygon fill="black" stroke="black" points="248.87,-438.05 259.41,-439.14 251.86,-431.72 248.87,-438.05"/>
</g>
<!-- ariles_visitors_jsonnet -->
<g id="node5" class="node">
<title>ariles_visitors_jsonnet</title>
<g id="a_node5"><a xlink:href="https://asherikov.github.io/ariles/2/group__jsonnet.html" xlink:title="jsonnet">
<ellipse fill="none" stroke="black" cx="300.13" cy="-396" rx="44.69" ry="18"/>
<text text-anchor="middle" x="300.13" y="-392.3" font-family="Times-Roman" font-size="14.00">jsonnet</text>
</a>
</g>
</g>
<!-- ariles_visitors&#45;&gt;ariles_visitors_jsonnet -->
<g id="edge4" class="edge">
<title>ariles_visitors&#45;&gt;ariles_visitors_jsonnet</title>
<path fill="none" stroke="black" d="M162.91,-278.67C175.6,-302.2 200.94,-343.8 233.19,-369 239.42,-373.87 246.66,-378 254.01,-381.44"/>
<polygon fill="black" stroke="black" points="252.75,-384.71 263.31,-385.45 255.51,-378.28 252.75,-384.71"/>
</g>
<!-- ariles_visitors_msgpack -->
<g id="node8" class="node">
<title>ariles_visitors_msgpack</title>
<g id="a_node8"><a xlink:href="https://asherikov.github.io/ariles/2/group__msgpack.html" xlink:title="msgpack">
<ellipse fill="none" stroke="black" cx="300.13" cy="-342" rx="52.79" ry="18"/>
<text text-anchor="middle" x="300.13" y="-338.3" font-family="Times-Roman" font-size="14.00">msgpack</text>
</a>
</g>
</g>
<!-- ariles_visitors&#45;&gt;ariles_visitors_msgpack -->
<g id="edge7" class="edge">
<title>ariles_visitors&#45;&gt;ariles_visitors_msgpack</title>
<path fill="none" stroke="black" d="M174.74,-276.93C190.28,-288.42 212.37,-303.81 233.19,-315 239.7,-318.51 246.77,-321.85 253.78,-324.91"/>
<polygon fill="black" stroke="black" points="252.68,-328.24 263.25,-328.9 255.4,-321.79 252.68,-328.24"/>
</g>
<!-- ariles_visitors_octave -->
<g id="node11" class="node">
<title>ariles_visitors_octave</title>
<g id="a_node11"><a xlink:href="https://asherikov.github.io/ariles/2/group__octave.html" xlink:title="octave">
<ellipse fill="none" stroke="black" cx="300.13" cy="-288" rx="42.49" ry="18"/>
<text text-anchor="middle" x="300.13" y="-284.3" font-family="Times-Roman" font-size="14.00">octave</text>
</a>
</g>
</g>
<!-- ariles_visitors&#45;&gt;ariles_visitors_octave -->
<g id="edge10" class="edge">
<title>ariles_visitors&#45;&gt;ariles_visitors_octave</title>
<path fill="none" stroke="black" d="M193.65,-268.38C211.35,-271.67 232.37,-275.58 250.97,-279.04"/>
<polygon fill="black" stroke="black" points="250.55,-282.52 261.02,-280.91 251.83,-275.64 250.55,-282.52"/>
</g>
<!-- ariles_visitors_pugixml -->
<g id="node12" class="node">
<title>ariles_visitors_pugixml</title>
<g id="a_node12"><a xlink:href="https://asherikov.github.io/ariles/2/group__pugixml.html" xlink:title="pugixml">
<ellipse fill="none" stroke="black" cx="300.13" cy="-234" rx="48.19" ry="18"/>
<text text-anchor="middle" x="300.13" y="-230.3" font-family="Times-Roman" font-size="14.00">pugixml</text>
</a>
</g>
</g>
<!-- ariles_visitors&#45;&gt;ariles_visitors_pugixml -->
<g id="edge11" class="edge">
<title>ariles_visitors&#45;&gt;ariles_visitors_pugixml</title>
<path fill="none" stroke="black" d="M193.65,-253.62C210,-250.58 229.17,-247.01 246.66,-243.76"/>
<polygon fill="black" stroke="black" points="247.53,-247.16 256.72,-241.89 246.25,-240.28 247.53,-247.16"/>
</g>
<!-- ariles_visitors_rapidjson -->
<g id="node15" class="node">
<title>ariles_visitors_rapidjson</title>
<g id="a_node15"><a xlink:href="https://asherikov.github.io/ariles/2/group__rapidjson.html" xlink:title="rapidjson">
<ellipse fill="none" stroke="black" cx="300.13" cy="-180" rx="53.89" ry="18"/>
<text text-anchor="middle" x="300.13" y="-176.3" font-family="Times-Roman" font-size="14.00">rapidjson</text>
</a>
</g>
</g>
<!-- ariles_visitors&#45;&gt;ariles_visitors_rapidjson -->
<g id="edge14" class="edge">
<title>ariles_visitors&#45;&gt;ariles_visitors_rapidjson</title>
<path fill="none" stroke="black" d="M174.74,-245.07C190.28,-233.58 212.37,-218.19 233.19,-207 239.63,-203.53 246.61,-200.23 253.54,-197.2"/>
<polygon fill="black" stroke="black" points="255.06,-200.36 262.91,-193.24 252.33,-193.91 255.06,-200.36"/>
</g>
<!-- ariles_visitors_ros -->
<g id="node18" class="node">
<title>ariles_visitors_ros</title>
<g id="a_node18"><a xlink:href="https://asherikov.github.io/ariles/2/group__ros.html" xlink:title="ros">
<ellipse fill="none" stroke="black" cx="300.13" cy="-126" rx="27" ry="18"/>
<text text-anchor="middle" x="300.13" y="-122.3" font-family="Times-Roman" font-size="14.00">ros</text>
</a>
</g>
</g>
<!-- ariles_visitors&#45;&gt;ariles_visitors_ros -->
<g id="edge17" class="edge">
<title>ariles_visitors&#45;&gt;ariles_visitors_ros</title>
<path fill="none" stroke="black" d="M162.91,-243.33C175.6,-219.8 200.94,-178.2 233.19,-153 242.59,-145.65 254.27,-140.01 265.18,-135.83"/>
<polygon fill="black" stroke="black" points="266.63,-139.03 274.89,-132.39 264.29,-132.43 266.63,-139.03"/>
</g>
<!-- ariles_visitors_yaml_cpp -->
<g id="node21" class="node">
<title>ariles_visitors_yaml_cpp</title>
<g id="a_node21"><a xlink:href="https://asherikov.github.io/ariles/2/group__yaml__cpp.html" xlink:title="yaml_cpp">
<ellipse fill="none" stroke="black" cx="300.13" cy="-72" rx="55.49" ry="18"/>
<text text-anchor="middle" x="300.13" y="-68.3" font-family="Times-Roman" font-size="14.00">yaml_cpp</text>
</a>
</g>
</g>
<!-- ariles_visitors&#45;&gt;ariles_visitors_yaml_cpp -->
<g id="edge20" class="edge">
<title>ariles_visitors&#45;&gt;ariles_visitors_yaml_cpp</title>
<path fill="none" stroke="black" d="M158.27,-242.87C166.93,-209.93 189.53,-139.86 233.19,-99 237.75,-94.73 243.08,-91.09 248.7,-88"/>
<polygon fill="black" stroke="black" points="250.26,-91.14 257.69,-83.59 247.18,-84.85 250.26,-91.14"/>
</g>
<!-- ariles_visitors_yaml_cpp03 -->
<g id="node24" class="node">
<title>ariles_visitors_yaml_cpp03</title>
<g id="a_node24"><a xlink:href="https://asherikov.github.io/ariles/2/group__yaml__cpp03.html" xlink:title="yaml_cpp03">
<ellipse fill="none" stroke="black" cx="300.13" cy="-18" rx="66.89" ry="18"/>
<text text-anchor="middle" x="300.13" y="-14.3" font-family="Times-Roman" font-size="14.00">yaml_cpp03</text>
</a>
</g>
</g>
<!-- ariles_visitors&#45;&gt;ariles_visitors_yaml_cpp03 -->
<g id="edge23" class="edge">
<title>ariles_visitors&#45;&gt;ariles_visitors_yaml_cpp03</title>
<path fill="none" stroke="black" d="M155.74,-242.77C160.6,-202 177.76,-102.53 233.19,-45 236.41,-41.65 240.11,-38.71 244.08,-36.11"/>
<polygon fill="black" stroke="black" points="246.13,-38.97 253.1,-30.99 242.67,-32.89 246.13,-38.97"/>
</g>
<!-- ariles_visitors_jsonnet_dependencies -->
<g id="node6" class="node">
<title>ariles_visitors_jsonnet_dependencies</title>
<ellipse fill="none" stroke="black" cx="478.47" cy="-396" rx="75.29" ry="18"/>
<text text-anchor="middle" x="478.47" y="-392.3" font-family="Times-Roman" font-size="14.00">dependencies</text>
</g>
<!-- ariles_visitors_jsonnet&#45;&gt;ariles_visitors_jsonnet_dependencies -->
<g id="edge5" class="edge">
<title>ariles_visitors_jsonnet&#45;&gt;ariles_visitors_jsonnet_dependencies</title>
<path fill="none" stroke="black" d="M345.17,-396C359.62,-396 376.19,-396 392.61,-396"/>
<polygon fill="black" stroke="black" points="392.8,-399.5 402.8,-396 392.8,-392.5 392.8,-399.5"/>
</g>
<!-- jsonnet -->
<g id="node7" class="node">
<title>jsonnet</title>
<g id="a_node7"><a xlink:href="https://jsonnet.org/" xlink:title="https://jsonnet.org/">
<ellipse fill="none" stroke="black" cx="763.4" cy="-396" rx="98.58" ry="18"/>
<text text-anchor="middle" x="763.4" y="-392.3" font-family="Times-Roman" font-size="14.00">https://jsonnet.org/</text>
</a>
</g>
</g>
<!-- ariles_visitors_jsonnet_dependencies&#45;&gt;jsonnet -->
<g id="edge6" class="edge">
<title>ariles_visitors_jsonnet_dependencies&#45;&gt;jsonnet</title>
<path fill="none" stroke="black" d="M554.17,-396C584.81,-396 620.87,-396 654.29,-396"/>
<polygon fill="black" stroke="black" points="654.57,-399.5 664.57,-396 654.57,-392.5 654.57,-399.5"/>
</g>
<!-- ariles_visitors_msgpack_dependencies -->
<g id="node9" class="node">
<title>ariles_visitors_msgpack_dependencies</title>
<ellipse fill="none" stroke="black" cx="478.47" cy="-342" rx="75.29" ry="18"/>
<text text-anchor="middle" x="478.47" y="-338.3" font-family="Times-Roman" font-size="14.00">dependencies</text>
</g>
<!-- ariles_visitors_msgpack&#45;&gt;ariles_visitors_msgpack_dependencies -->
<g id="edge8" class="edge">
<title>ariles_visitors_msgpack&#45;&gt;ariles_visitors_msgpack_dependencies</title>
<path fill="none" stroke="black" d="M353.08,-342C365.55,-342 379.19,-342 392.72,-342"/>
<polygon fill="black" stroke="black" points="393.02,-345.5 403.02,-342 393.02,-338.5 393.02,-345.5"/>
</g>
<!-- msgpack -->
<g id="node10" class="node">
<title>msgpack</title>
<g id="a_node10"><a xlink:href="https://msgpack.org/" xlink:title="https://msgpack.org/">
<ellipse fill="none" stroke="black" cx="763.4" cy="-342" rx="106.68" ry="18"/>
<text text-anchor="middle" x="763.4" y="-338.3" font-family="Times-Roman" font-size="14.00">https://msgpack.org/</text>
</a>
</g>
</g>
<!-- ariles_visitors_msgpack_dependencies&#45;&gt;msgpack -->
<g id="edge9" class="edge">
<title>ariles_visitors_msgpack_dependencies&#45;&gt;msgpack</title>
<path fill="none" stroke="black" d="M554.17,-342C582.46,-342 615.38,-342 646.57,-342"/>
<polygon fill="black" stroke="black" points="646.63,-345.5 656.63,-342 646.63,-338.5 646.63,-345.5"/>
</g>
<!-- ariles_visitors_pugixml_dependencies -->
<g id="node13" class="node">
<title>ariles_visitors_pugixml_dependencies</title>
<ellipse fill="none" stroke="black" cx="478.47" cy="-234" rx="75.29" ry="18"/>
<text text-anchor="middle" x="478.47" y="-230.3" font-family="Times-Roman" font-size="14.00">dependencies</text>
</g>
<!-- ariles_visitors_pugixml&#45;&gt;ariles_visitors_pugixml_dependencies -->
<g id="edge12" class="edge">
<title>ariles_visitors_pugixml&#45;&gt;ariles_visitors_pugixml_dependencies</title>
<path fill="none" stroke="black" d="M348.38,-234C362.11,-234 377.53,-234 392.82,-234"/>
<polygon fill="black" stroke="black" points="392.82,-237.5 402.82,-234 392.82,-230.5 392.82,-237.5"/>
</g>
<!-- pugixml -->
<g id="node14" class="node">
<title>pugixml</title>
<g id="a_node14"><a xlink:href="https://pugixml.org/" xlink:title="https://pugixml.org/">
<ellipse fill="none" stroke="black" cx="763.4" cy="-234" rx="101.28" ry="18"/>
<text text-anchor="middle" x="763.4" y="-230.3" font-family="Times-Roman" font-size="14.00">https://pugixml.org/</text>
</a>
</g>
</g>
<!-- ariles_visitors_pugixml_dependencies&#45;&gt;pugixml -->
<g id="edge13" class="edge">
<title>ariles_visitors_pugixml_dependencies&#45;&gt;pugixml</title>
<path fill="none" stroke="black" d="M554.17,-234C584.07,-234 619.13,-234 651.86,-234"/>
<polygon fill="black" stroke="black" points="651.94,-237.5 661.94,-234 651.94,-230.5 651.94,-237.5"/>
</g>
<!-- ariles_visitors_rapidjson_dependencies -->
<g id="node16" class="node">
<title>ariles_visitors_rapidjson_dependencies</title>
<ellipse fill="none" stroke="black" cx="478.47" cy="-180" rx="75.29" ry="18"/>
<text text-anchor="middle" x="478.47" y="-176.3" font-family="Times-Roman" font-size="14.00">dependencies</text>
</g>
<!-- ariles_visitors_rapidjson&#45;&gt;ariles_visitors_rapidjson_dependencies -->
<g id="edge15" class="edge">
<title>ariles_visitors_rapidjson&#45;&gt;ariles_visitors_rapidjson_dependencies</title>
<path fill="none" stroke="black" d="M354.52,-180C366.51,-180 379.53,-180 392.46,-180"/>
<polygon fill="black" stroke="black" points="392.79,-183.5 402.79,-180 392.79,-176.5 392.79,-183.5"/>
</g>
<!-- rapidjson -->
<g id="node17" class="node">
<title>rapidjson</title>
<g id="a_node17"><a xlink:href="https://rapidjson.org/" xlink:title="https://rapidjson.org/">
<ellipse fill="none" stroke="black" cx="763.4" cy="-180" rx="107.48" ry="18"/>
<text text-anchor="middle" x="763.4" y="-176.3" font-family="Times-Roman" font-size="14.00">https://rapidjson.org/</text>
</a>
</g>
</g>
<!-- ariles_visitors_rapidjson_dependencies&#45;&gt;rapidjson -->
<g id="edge16" class="edge">
<title>ariles_visitors_rapidjson_dependencies&#45;&gt;rapidjson</title>
<path fill="none" stroke="black" d="M554.17,-180C582.32,-180 615.03,-180 646.08,-180"/>
<polygon fill="black" stroke="black" points="646.09,-183.5 656.09,-180 646.09,-176.5 646.09,-183.5"/>
</g>
<!-- ariles_visitors_ros_dependencies -->
<g id="node19" class="node">
<title>ariles_visitors_ros_dependencies</title>
<ellipse fill="none" stroke="black" cx="478.47" cy="-126" rx="75.29" ry="18"/>
<text text-anchor="middle" x="478.47" y="-122.3" font-family="Times-Roman" font-size="14.00">dependencies</text>
</g>
<!-- ariles_visitors_ros&#45;&gt;ariles_visitors_ros_dependencies -->
<g id="edge18" class="edge">
<title>ariles_visitors_ros&#45;&gt;ariles_visitors_ros_dependencies</title>
<path fill="none" stroke="black" d="M327.15,-126C344.67,-126 368.85,-126 392.7,-126"/>
<polygon fill="black" stroke="black" points="392.88,-129.5 402.88,-126 392.88,-122.5 392.88,-129.5"/>
</g>
<!-- ros -->
<g id="node20" class="node">
<title>ros</title>
<g id="a_node20"><a xlink:href="https://www.ros.org/" xlink:title="https://www.ros.org/">
<ellipse fill="none" stroke="black" cx="763.4" cy="-126" rx="104.78" ry="18"/>
<text text-anchor="middle" x="763.4" y="-122.3" font-family="Times-Roman" font-size="14.00">https://www.ros.org/</text>
</a>
</g>
</g>
<!-- ariles_visitors_ros_dependencies&#45;&gt;ros -->
<g id="edge19" class="edge">
<title>ariles_visitors_ros_dependencies&#45;&gt;ros</title>
<path fill="none" stroke="black" d="M554.17,-126C582.98,-126 616.58,-126 648.28,-126"/>
<polygon fill="black" stroke="black" points="648.49,-129.5 658.49,-126 648.49,-122.5 648.49,-129.5"/>
</g>
<!-- ariles_visitors_yaml_cpp_dependencies -->
<g id="node22" class="node">
<title>ariles_visitors_yaml_cpp_dependencies</title>
<ellipse fill="none" stroke="black" cx="478.47" cy="-72" rx="75.29" ry="18"/>
<text text-anchor="middle" x="478.47" y="-68.3" font-family="Times-Roman" font-size="14.00">dependencies</text>
</g>
<!-- ariles_visitors_yaml_cpp&#45;&gt;ariles_visitors_yaml_cpp_dependencies -->
<g id="edge21" class="edge">
<title>ariles_visitors_yaml_cpp&#45;&gt;ariles_visitors_yaml_cpp_dependencies</title>
<path fill="none" stroke="black" d="M355.48,-72C367.29,-72 380.07,-72 392.74,-72"/>
<polygon fill="black" stroke="black" points="392.87,-75.5 402.87,-72 392.87,-68.5 392.87,-75.5"/>
</g>
<!-- yaml_cpp -->
<g id="node23" class="node">
<title>yaml_cpp</title>
<g id="a_node23"><a xlink:href="https://github.com/jbeder/yaml-cpp" xlink:title="https://github.com/jbeder/yaml&#45;cpp">
<ellipse fill="none" stroke="black" cx="763.4" cy="-45" rx="173.57" ry="18"/>
<text text-anchor="middle" x="763.4" y="-41.3" font-family="Times-Roman" font-size="14.00">https://github.com/jbeder/yaml&#45;cpp</text>
</a>
</g>
</g>
<!-- ariles_visitors_yaml_cpp_dependencies&#45;&gt;yaml_cpp -->
<g id="edge22" class="edge">
<title>ariles_visitors_yaml_cpp_dependencies&#45;&gt;yaml_cpp</title>
<path fill="none" stroke="black" d="M548.68,-65.4C571.82,-63.19 598.48,-60.64 624.95,-58.12"/>
<polygon fill="black" stroke="black" points="625.46,-61.58 635.08,-57.15 624.8,-54.62 625.46,-61.58"/>
</g>
<!-- ariles_visitors_yaml_cpp03_dependencies -->
<g id="node25" class="node">
<title>ariles_visitors_yaml_cpp03_dependencies</title>
<ellipse fill="none" stroke="black" cx="478.47" cy="-18" rx="75.29" ry="18"/>
<text text-anchor="middle" x="478.47" y="-14.3" font-family="Times-Roman" font-size="14.00">dependencies</text>
</g>
<!-- ariles_visitors_yaml_cpp03&#45;&gt;ariles_visitors_yaml_cpp03_dependencies -->
<g id="edge24" class="edge">
<title>ariles_visitors_yaml_cpp03&#45;&gt;ariles_visitors_yaml_cpp03_dependencies</title>
<path fill="none" stroke="black" d="M367.29,-18C375.65,-18 384.29,-18 392.89,-18"/>
<polygon fill="black" stroke="black" points="392.94,-21.5 402.94,-18 392.94,-14.5 392.94,-21.5"/>
</g>
<!-- ariles_visitors_yaml_cpp03_dependencies&#45;&gt;yaml_cpp -->
<g id="edge25" class="edge">
<title>ariles_visitors_yaml_cpp03_dependencies&#45;&gt;yaml_cpp</title>
<path fill="none" stroke="black" d="M548.68,-24.6C571.82,-26.81 598.48,-29.36 624.95,-31.88"/>
<polygon fill="black" stroke="black" points="624.8,-35.38 635.08,-32.85 625.46,-28.42 624.8,-35.38"/>
</g>
</g>
</svg>
